<svg width="24" height="26" viewBox="0 0 24 26" fill="none" xmlns="http://www.w3.org/2000/svg">
<path d="M23.5085 19.1175C22.801 17.9 21.7498 14.4662 21.7498 10C21.7498 7.41414 20.7226 4.93419 18.8941 3.10571C17.0656 1.27723 14.5856 0.25 11.9998 0.25C9.41393 0.25 6.93398 1.27723 5.1055 3.10571C3.27702 4.93419 2.24979 7.41414 2.24979 10C2.24979 14.4675 1.19729 17.9 0.489787 19.1175C0.334556 19.3833 0.252186 19.6854 0.25099 19.9932C0.249793 20.301 0.329812 20.6037 0.482972 20.8707C0.636133 21.1377 0.857014 21.3596 1.12333 21.514C1.38964 21.6684 1.69196 21.7498 1.99979 21.75H7.30979C7.49195 22.8618 8.06338 23.8727 8.92203 24.6021C9.78068 25.3315 10.8706 25.732 11.9973 25.732C13.1239 25.732 14.2139 25.3315 15.0725 24.6021C15.9312 23.8727 16.5026 22.8618 16.6848 21.75H21.9998C22.3074 21.7494 22.6094 21.6676 22.8754 21.5131C23.1413 21.3585 23.3619 21.1366 23.5147 20.8696C23.6676 20.6027 23.7474 20.3002 23.7461 19.9926C23.7448 19.685 23.6624 19.3831 23.5073 19.1175H23.5085ZM11.9998 24.25C11.2684 24.2498 10.5585 24.0029 9.98485 23.5492C9.41119 23.0955 9.00731 22.4616 8.83854 21.75H15.161C14.9923 22.4616 14.5884 23.0955 14.0147 23.5492C13.4411 24.0029 12.7312 24.2498 11.9998 24.25ZM22.2135 20.125C22.1929 20.1633 22.1622 20.1952 22.1248 20.2172C22.0873 20.2393 22.0445 20.2506 22.001 20.25H1.99979C1.95632 20.2506 1.91352 20.2393 1.87605 20.2172C1.83858 20.1952 1.80788 20.1633 1.78729 20.125C1.76534 20.087 1.75379 20.0439 1.75379 20C1.75379 19.9561 1.76534 19.913 1.78729 19.875C2.73354 18.25 3.74979 14.4613 3.74979 10C3.74979 7.81196 4.61898 5.71354 6.16616 4.16637C7.71333 2.61919 9.81175 1.75 11.9998 1.75C14.1878 1.75 16.2862 2.61919 17.8334 4.16637C19.3806 5.71354 20.2498 7.81196 20.2498 10C20.2498 14.46 21.2673 18.2437 22.2135 19.875C22.2355 19.913 22.247 19.9561 22.247 20C22.247 20.0439 22.2355 20.087 22.2135 20.125Z" fill="black"/>
</svg>
