<svg width="60" height="60" viewBox="0 0 60 60" fill="none" xmlns="http://www.w3.org/2000/svg">
<g id="Vector">
<path id="Vector_2" d="M60 9.54L25.77 43.8L13.05 31.08L17.28 26.85L25.77 35.34L55.77 5.34L60 9.54ZM53.37 24.66C53.76 26.37 54 28.17 54 30C54 43.26 43.26 54 30 54C16.74 54 6 43.26 6 30C6 16.74 16.74 6 30 6C34.74 6 39.12 7.38 42.84 9.75L47.16 5.43C42.3 2.01 36.39 0 30 0C13.44 0 0 13.44 0 30C0 46.56 13.44 60 30 60C46.56 60 60 46.56 60 30C60 26.43 59.34 23.01 58.2 19.83L53.37 24.66Z" fill="#E3DEC9"/>
</g>
</svg>
