<svg width="24" height="24" viewBox="0 0 24 24" fill="none" xmlns="http://www.w3.org/2000/svg">
<g clip-path="url(#clip0_472_2868)">
<path fill-rule="evenodd" clip-rule="evenodd" d="M21.546 5.11058C21.8272 5.39187 21.9852 5.77333 21.9852 6.17108C21.9852 6.56882 21.8272 6.95029 21.546 7.23158L10.303 18.4746C10.1544 18.6232 9.97805 18.7411 9.7839 18.8215C9.58976 18.9019 9.38167 18.9433 9.17153 18.9433C8.96138 18.9433 8.75329 18.9019 8.55915 18.8215C8.365 18.7411 8.1886 18.6232 8.04003 18.4746L2.45403 12.8896C2.31076 12.7512 2.19649 12.5857 2.11787 12.4027C2.03926 12.2197 1.99788 12.0228 1.99615 11.8237C1.99442 11.6245 2.03237 11.427 2.10779 11.2426C2.18322 11.0583 2.29459 10.8908 2.43543 10.75C2.57627 10.6091 2.74375 10.4978 2.92809 10.4223C3.11244 10.3469 3.30996 10.309 3.50913 10.3107C3.7083 10.3124 3.90513 10.3538 4.08813 10.4324C4.27114 10.511 4.43666 10.6253 4.57503 10.7686L9.17103 15.3646L19.424 5.11058C19.5633 4.97119 19.7287 4.86061 19.9108 4.78517C20.0928 4.70973 20.288 4.6709 20.485 4.6709C20.6821 4.6709 20.8772 4.70973 21.0593 4.78517C21.2413 4.86061 21.4067 4.97119 21.546 5.11058Z" fill="#2200F2"/>
</g>
<defs>
<clipPath id="clip0_472_2868">
<rect width="24" height="24" fill="white"/>
</clipPath>
</defs>
</svg>
