<svg width="24" height="24" viewBox="0 0 24 24" fill="none" xmlns="http://www.w3.org/2000/svg">
<g id="diversity_3">
<path id="Vector" d="M12 13.5C11.337 13.5 10.7011 13.2366 10.2322 12.7678C9.76339 12.2989 9.5 11.663 9.5 11C9.5 10.337 9.76339 9.70107 10.2322 9.23223C10.7011 8.76339 11.337 8.5 12 8.5C12.663 8.5 13.2989 8.76339 13.7678 9.23223C14.2366 9.70107 14.5 10.337 14.5 11C14.5 11.3283 14.4353 11.6534 14.3097 11.9567C14.1841 12.26 13.9999 12.5356 13.7678 12.7678C13.5356 12.9999 13.26 13.1841 12.9567 13.3097C12.6534 13.4353 12.3283 13.5 12 13.5ZM12 4C10.1435 4 8.36301 4.7375 7.05025 6.05025C5.7375 7.36301 5 9.14348 5 11C5 16.25 12 24 12 24C12 24 19 16.25 19 11C19 9.14348 18.2625 7.36301 16.9497 6.05025C15.637 4.7375 13.8565 4 12 4Z" fill="black"/>
</g>
</svg>
