<svg width="32" height="32" viewBox="0 0 32 32" fill="none" xmlns="http://www.w3.org/2000/svg">
<g clip-path="url(#clip0_96_7934)">
<path d="M15.9994 18.286C19.1554 18.286 21.7137 15.7276 21.7137 12.5717C21.7137 9.41579 19.1554 6.85742 15.9994 6.85742C12.8435 6.85742 10.2852 9.41579 10.2852 12.5717C10.2852 15.7276 12.8435 18.286 15.9994 18.286Z" stroke="black" stroke-linecap="round" stroke-linejoin="round"/>
<path d="M6.23926 27.2004C7.25924 25.5261 8.69276 24.1424 10.402 23.1823C12.1113 22.2221 14.0388 21.7178 15.9993 21.7178C17.9597 21.7178 19.8872 22.2221 21.5965 23.1823C23.3058 24.1424 24.7393 25.5261 25.7593 27.2004" stroke="black" stroke-linecap="round" stroke-linejoin="round"/>
<path d="M15.9997 30.8574C24.2051 30.8574 30.8569 24.2056 30.8569 16.0002C30.8569 7.79484 24.2051 1.14307 15.9997 1.14307C7.79435 1.14307 1.14258 7.79484 1.14258 16.0002C1.14258 24.2056 7.79435 30.8574 15.9997 30.8574Z" stroke="black" stroke-linecap="round" stroke-linejoin="round"/>
</g>
<defs>
<clipPath id="clip0_96_7934">
<rect width="32" height="32" fill="white"/>
</clipPath>
</defs>
</svg>
