<svg width="40" height="40" viewBox="0 0 40 40" fill="none" xmlns="http://www.w3.org/2000/svg">
<path d="M26.2167 5H13.7833L5 13.7833V26.2167L13.7833 35H26.2167L35 26.2167V13.7833L26.2167 5ZM31.6667 24.8333L24.8333 31.6667H15.1667L8.33333 24.8333V15.1667L15.1667 8.33333H24.8333L31.6667 15.1667V24.8333Z" fill="black"/>
<path d="M20 28.3333C20.9205 28.3333 21.6667 27.5871 21.6667 26.6667C21.6667 25.7462 20.9205 25 20 25C19.0795 25 18.3333 25.7462 18.3333 26.6667C18.3333 27.5871 19.0795 28.3333 20 28.3333Z" fill="black"/>
<path d="M18.3333 11.6667H21.6667V23.3333H18.3333V11.6667Z" fill="black"/>
</svg>
