<svg width="148" height="46" viewBox="0 0 148 46" fill="none" xmlns="http://www.w3.org/2000/svg">
<g filter="url(#filter0_dddd_248_9419)">
<rect x="4.75" y="0.75" width="138.5" height="36.5" rx="9.25" stroke="#FF0000" stroke-width="1.5" shape-rendering="crispEdges"/>
<path d="M24 9C18.47 9 14 13.47 14 19C14 24.53 18.47 29 24 29C29.53 29 34 24.53 34 19C34 13.47 29.53 9 24 9ZM24 27C19.59 27 16 23.41 16 19C16 14.59 19.59 11 24 11C28.41 11 32 14.59 32 19C32 23.41 28.41 27 24 27ZM27.59 14L24 17.59L20.41 14L19 15.41L22.59 19L19 22.59L20.41 24L24 20.41L27.59 24L29 22.59L25.41 19L29 15.41L27.59 14Z" fill="#FF0000"/>
<path d="M53.25 12.8H57.65V14.525H53.25V12.8ZM53.25 19.675H57.65V21.4H53.25V19.675ZM61.45 7.35H63.45V29.95H61.45V7.35ZM57.025 7.825H58.975V28.825H57.025V7.825ZM49.325 9.225C52.25 9.225 54.15 12.25 54.15 17.1C54.15 21.95 52.25 24.975 49.325 24.975C46.4 24.975 44.525 21.95 44.525 17.1C44.525 12.25 46.4 9.225 49.325 9.225ZM49.325 11.15C47.55 11.15 46.4 13.45 46.4 17.1C46.4 20.75 47.55 23.05 49.325 23.05C51.125 23.05 52.25 20.75 52.25 17.1C52.25 13.45 51.125 11.15 49.325 11.15ZM83.598 10.775H87.523V12.525H83.598V10.775ZM83.598 15.625H87.523V17.35H83.598V15.625ZM82.148 7.35H84.223V20.775H82.148V7.35ZM69.548 21.85H84.223V29.95H82.148V23.525H69.548V21.85ZM72.998 8.675C76.398 8.675 78.898 10.875 78.898 14.05C78.898 17.2 76.398 19.375 72.998 19.375C69.598 19.375 67.098 17.2 67.098 14.05C67.098 10.875 69.598 8.675 72.998 8.675ZM72.998 10.45C70.748 10.45 69.123 11.9 69.123 14.05C69.123 16.175 70.748 17.65 72.998 17.65C75.248 17.65 76.873 16.175 76.873 14.05C76.873 11.9 75.248 10.45 72.998 10.45ZM95.5711 11.3H97.2711V11.6C97.2711 14.925 94.8211 17.525 90.9961 18.475L90.1461 16.825C93.3711 16.1 95.5711 14 95.5711 11.6V11.3ZM95.9461 11.3H97.6461V11.6C97.6461 13.875 99.8211 15.8 103.021 16.525L102.171 18.15C98.3961 17.25 95.9461 14.775 95.9461 11.6V11.3ZM90.6211 9.9H102.596V11.55H90.6211V9.9ZM95.5461 7.4H97.6461V11H95.5461V7.4ZM95.5961 20.275H97.6711V29.3H95.5961V20.275ZM105.596 7.35H107.646V29.975H105.596V7.35ZM89.3711 21.8L89.0961 20.05C93.3711 20.05 99.0461 20.025 103.996 19.325L104.146 20.85C99.0711 21.725 93.5711 21.8 89.3711 21.8ZM111.594 25.3H132.069V27.025H111.594V25.3ZM120.694 19.825H122.744V25.875H120.694V19.825ZM120.644 8.85H122.444V10.6C122.444 15.425 117.819 19.15 113.269 20.1L112.394 18.375C116.369 17.65 120.644 14.325 120.644 10.6V8.85ZM121.019 8.85H122.819V10.6C122.819 14.35 127.119 17.65 131.094 18.375L130.194 20.1C125.644 19.15 121.019 15.425 121.019 10.6V8.85Z" fill="#FF0000"/>
</g>
<defs>
<filter id="filter0_dddd_248_9419" x="0" y="0" width="148" height="46" filterUnits="userSpaceOnUse" color-interpolation-filters="sRGB">
<feFlood flood-opacity="0" result="BackgroundImageFix"/>
<feColorMatrix in="SourceAlpha" type="matrix" values="0 0 0 0 0 0 0 0 0 0 0 0 0 0 0 0 0 0 127 0" result="hardAlpha"/>
<feOffset dy="4"/>
<feGaussianBlur stdDeviation="2"/>
<feComposite in2="hardAlpha" operator="out"/>
<feColorMatrix type="matrix" values="0 0 0 0 0 0 0 0 0 0 0 0 0 0 0 0 0 0 0.25 0"/>
<feBlend mode="normal" in2="BackgroundImageFix" result="effect1_dropShadow_248_9419"/>
<feColorMatrix in="SourceAlpha" type="matrix" values="0 0 0 0 0 0 0 0 0 0 0 0 0 0 0 0 0 0 127 0" result="hardAlpha"/>
<feOffset dy="4"/>
<feGaussianBlur stdDeviation="2"/>
<feComposite in2="hardAlpha" operator="out"/>
<feColorMatrix type="matrix" values="0 0 0 0 0 0 0 0 0 0 0 0 0 0 0 0 0 0 0.25 0"/>
<feBlend mode="normal" in2="effect1_dropShadow_248_9419" result="effect2_dropShadow_248_9419"/>
<feColorMatrix in="SourceAlpha" type="matrix" values="0 0 0 0 0 0 0 0 0 0 0 0 0 0 0 0 0 0 127 0" result="hardAlpha"/>
<feOffset dy="4"/>
<feGaussianBlur stdDeviation="2"/>
<feComposite in2="hardAlpha" operator="out"/>
<feColorMatrix type="matrix" values="0 0 0 0 0 0 0 0 0 0 0 0 0 0 0 0 0 0 0.25 0"/>
<feBlend mode="normal" in2="effect2_dropShadow_248_9419" result="effect3_dropShadow_248_9419"/>
<feColorMatrix in="SourceAlpha" type="matrix" values="0 0 0 0 0 0 0 0 0 0 0 0 0 0 0 0 0 0 127 0" result="hardAlpha"/>
<feOffset dy="4"/>
<feGaussianBlur stdDeviation="2"/>
<feComposite in2="hardAlpha" operator="out"/>
<feColorMatrix type="matrix" values="0 0 0 0 0 0 0 0 0 0 0 0 0 0 0 0 0 0 0.25 0"/>
<feBlend mode="normal" in2="effect3_dropShadow_248_9419" result="effect4_dropShadow_248_9419"/>
<feBlend mode="normal" in="SourceGraphic" in2="effect4_dropShadow_248_9419" result="shape"/>
</filter>
</defs>
</svg>
