<svg width="334" height="50" viewBox="0 0 334 50" fill="none" xmlns="http://www.w3.org/2000/svg">
<g filter="url(#filter0_d_635_2695)">
<rect x="3" y="3" width="328" height="43.73" rx="10" fill="white"/>
<rect width="20" height="20" transform="translate(78 14)" fill="white"/>
<path fill-rule="evenodd" clip-rule="evenodd" d="M101.04 26.2615C101.04 25.446 100.967 24.6619 100.831 23.9092H90V28.3576H96.1891C95.9225 29.7951 95.1123 31.013 93.8943 31.8285V34.714H97.6109C99.7855 32.7119 101.04 29.7637 101.04 26.2615Z" fill="#4285F4"/>
<path fill-rule="evenodd" clip-rule="evenodd" d="M89.9995 37.5001C93.1045 37.5001 95.7077 36.4703 97.6104 34.7139L93.8938 31.8285C92.864 32.5185 91.5467 32.9262 89.9995 32.9262C87.0042 32.9262 84.469 30.9032 83.5647 28.1851H79.7227V31.1646C81.6149 34.923 85.504 37.5001 89.9995 37.5001Z" fill="#34A853"/>
<path fill-rule="evenodd" clip-rule="evenodd" d="M83.5652 28.185C83.3352 27.495 83.2045 26.7579 83.2045 26C83.2045 25.242 83.3352 24.505 83.5652 23.815V20.8354H79.7232C78.9443 22.3879 78.5 24.1443 78.5 26C78.5 27.8557 78.9443 29.612 79.7232 31.1645L83.5652 28.185Z" fill="#FBBC05"/>
<path fill-rule="evenodd" clip-rule="evenodd" d="M89.9995 19.0739C91.6879 19.0739 93.2038 19.6541 94.3956 20.7936L97.694 17.4952C95.7024 15.6395 93.0992 14.5 89.9995 14.5C85.504 14.5 81.6149 17.077 79.7227 20.8355L83.5647 23.815C84.469 21.0968 87.0042 19.0739 89.9995 19.0739Z" fill="#EA4335"/>
<path d="M113.128 18.262H121.038V19.2H113.128V18.262ZM111.7 23.694H123.138V24.646H111.7V23.694ZM116.81 24.324H117.972V30.106H116.81V24.324ZM120.492 18.262H121.626V19.354C121.626 20.67 121.626 22.154 121.15 24.296L120.002 24.142C120.492 22.098 120.492 20.628 120.492 19.354V18.262ZM126.035 17.968H134.183V18.906H126.035V17.968ZM124.579 22.14H136.045V23.092H124.579V22.14ZM133.427 17.968H134.561V18.78C134.561 19.69 134.561 20.866 134.225 22.434L133.091 22.308C133.427 20.768 133.427 19.676 133.427 18.78V17.968ZM125.923 24.338H134.603V27.558H127.113V29.322H125.951V26.662H133.455V25.276H125.923V24.338ZM125.951 29.014H134.925V29.952H125.951V29.014ZM142.358 20.95H145.172V21.888H142.358V20.95ZM142.26 24.128H145.144V25.066H142.26V24.128ZM147.09 17.436H148.21V30.092H147.09V17.436ZM144.556 17.758H145.648V29.448H144.556V17.758ZM141.728 19.032H142.848C142.848 22.35 141.518 25.332 138.116 27.362L137.444 26.536C140.398 24.744 141.728 22.224 141.728 19.242V19.032ZM138.004 19.032H142.19V19.984H138.004V19.032ZM157.085 20.712H159.941V21.678H157.085V20.712ZM159.577 17.436H160.739V24.982H159.577V17.436ZM156.581 25.36C159.185 25.36 160.795 26.242 160.795 27.726C160.795 29.224 159.185 30.078 156.581 30.078C153.963 30.078 152.353 29.224 152.353 27.726C152.353 26.242 153.963 25.36 156.581 25.36ZM156.581 26.27C154.677 26.27 153.515 26.802 153.515 27.726C153.515 28.636 154.677 29.168 156.581 29.168C158.485 29.168 159.647 28.636 159.647 27.726C159.647 26.802 158.485 26.27 156.581 26.27ZM153.557 18.71H154.509V19.732C154.509 22.07 153.081 24.072 150.981 24.856L150.379 23.932C152.255 23.246 153.557 21.552 153.557 19.732V18.71ZM153.781 18.71H154.719V19.732C154.719 21.37 155.951 22.938 157.785 23.582L157.197 24.506C155.139 23.764 153.781 21.86 153.781 19.732V18.71ZM150.729 18.36H157.491V19.312H150.729V18.36ZM168.928 18.234C171.56 18.234 173.52 19.634 173.52 21.734C173.52 23.848 171.56 25.234 168.928 25.234C166.296 25.234 164.322 23.848 164.322 21.734C164.322 19.634 166.296 18.234 168.928 18.234ZM168.928 19.186C166.926 19.186 165.442 20.208 165.442 21.734C165.442 23.246 166.926 24.282 168.928 24.282C170.93 24.282 172.414 23.246 172.414 21.734C172.414 20.208 170.93 19.186 168.928 19.186ZM163.216 27.446H174.682V28.426H163.216V27.446ZM176.095 27.572H187.561V28.538H176.095V27.572ZM181.219 24.856H182.381V27.978H181.219V24.856ZM177.481 18.374H186.147V22.21H178.671V24.744H177.523V21.272H184.999V19.312H177.481V18.374ZM177.523 24.254H186.441V25.206H177.523V24.254ZM192.46 27.572H203.926V28.538H192.46V27.572ZM197.584 24.856H198.746V27.978H197.584V24.856ZM193.846 18.374H202.512V22.21H195.036V24.744H193.888V21.272H201.364V19.312H193.846V18.374ZM193.888 24.254H202.806V25.206H193.888V24.254ZM206.571 18.78H214.719V19.718H206.571V18.78ZM205.339 27.278H216.777V28.244H205.339V27.278ZM214.103 18.78H215.237V20.04C215.237 21.664 215.237 23.47 214.761 26.2L213.599 26.088C214.103 23.498 214.103 21.608 214.103 20.04V18.78ZM227.416 17.45H228.592V26.69H227.416V17.45ZM220.458 28.86H228.97V29.812H220.458V28.86ZM220.458 25.738H221.606V29.182H220.458V25.738ZM221.802 18.318C223.692 18.318 225.092 19.606 225.092 21.44C225.092 23.26 223.692 24.562 221.802 24.562C219.912 24.562 218.498 23.26 218.498 21.44C218.498 19.606 219.912 18.318 221.802 18.318ZM221.802 19.326C220.57 19.326 219.632 20.194 219.632 21.44C219.632 22.672 220.57 23.54 221.802 23.54C223.034 23.54 223.972 22.672 223.972 21.44C223.972 20.194 223.034 19.326 221.802 19.326Z" fill="black" fill-opacity="0.54"/>
</g>
<defs>
<filter id="filter0_d_635_2695" x="0" y="0" width="334" height="49.73" filterUnits="userSpaceOnUse" color-interpolation-filters="sRGB">
<feFlood flood-opacity="0" result="BackgroundImageFix"/>
<feColorMatrix in="SourceAlpha" type="matrix" values="0 0 0 0 0 0 0 0 0 0 0 0 0 0 0 0 0 0 127 0" result="hardAlpha"/>
<feOffset/>
<feGaussianBlur stdDeviation="1.5"/>
<feColorMatrix type="matrix" values="0 0 0 0 0 0 0 0 0 0 0 0 0 0 0 0 0 0 0.084 0"/>
<feBlend mode="normal" in2="BackgroundImageFix" result="effect1_dropShadow_635_2695"/>
<feBlend mode="normal" in="SourceGraphic" in2="effect1_dropShadow_635_2695" result="shape"/>
</filter>
</defs>
</svg>
