<svg width="328" height="44" viewBox="0 0 328 44" fill="none" xmlns="http://www.w3.org/2000/svg">
<g clip-path="url(#clip0_635_2926)">
<rect width="328" height="43.73" rx="6" fill="#FEE500"/>
<g clip-path="url(#clip1_635_2926)">
<path fill-rule="evenodd" clip-rule="evenodd" d="M88.5 13.4653C83.5292 13.4653 79.5 16.5783 79.5 20.4176C79.5 22.8054 81.0584 24.9103 83.4315 26.1623L82.433 29.8098C82.3448 30.1321 82.7134 30.389 82.9965 30.2023L87.3733 27.3135C87.7427 27.3492 88.1181 27.37 88.5 27.37C93.4705 27.37 97.4999 24.2571 97.4999 20.4176C97.4999 16.5783 93.4705 13.4653 88.5 13.4653Z" fill="black"/>
</g>
<path d="M112.01 16.3852H113.225C113.225 20.3002 111.905 23.9002 107.045 26.3152L106.37 25.3552C110.66 23.2402 112.01 20.2102 112.01 16.5202V16.3852ZM107.105 16.3852H112.745V17.3902H107.105V16.3852ZM111.815 19.7452V20.7052L106.625 21.2152L106.43 20.1052L111.815 19.7452ZM115.415 14.9602H116.675V28.5352H115.415V14.9602ZM116.33 20.4652H118.835V21.5002H116.33V20.4652ZM125.809 16.3852H127.024C127.024 20.3002 125.704 23.9002 120.844 26.3152L120.169 25.3552C124.459 23.2402 125.809 20.2102 125.809 16.5202V16.3852ZM120.904 16.3852H126.544V17.3902H120.904V16.3852ZM125.614 19.7452V20.7052L120.424 21.2152L120.229 20.1052L125.614 19.7452ZM129.214 14.9602H130.474V28.5352H129.214V14.9602ZM130.129 20.4652H132.634V21.5002H130.129V20.4652ZM139.338 22.6402H140.583V26.0152H139.338V22.6402ZM139.968 15.8602C142.833 15.8602 144.888 17.2552 144.888 19.4152C144.888 21.5752 142.833 22.9702 139.968 22.9702C137.103 22.9702 135.033 21.5752 135.033 19.4152C135.033 17.2552 137.103 15.8602 139.968 15.8602ZM139.968 16.8502C137.808 16.8502 136.233 17.8702 136.233 19.4152C136.233 20.9602 137.808 21.9802 139.968 21.9802C142.113 21.9802 143.688 20.9602 143.688 19.4152C143.688 17.8702 142.113 16.8502 139.968 16.8502ZM133.848 25.7752H146.133V26.8102H133.848V25.7752ZM152.896 18.7402H155.911V19.7452H152.896V18.7402ZM152.791 22.1452H155.881V23.1502H152.791V22.1452ZM157.966 14.9752H159.166V28.5352H157.966V14.9752ZM155.251 15.3202H156.421V27.8452H155.251V15.3202ZM152.221 16.6852H153.421C153.421 20.2402 151.996 23.4352 148.351 25.6102L147.631 24.7252C150.796 22.8052 152.221 20.1052 152.221 16.9102V16.6852ZM148.231 16.6852H152.716V17.7052H148.231V16.6852ZM168.675 18.4852H171.735V19.5202H168.675V18.4852ZM171.345 14.9752H172.59V23.0602H171.345V14.9752ZM168.135 23.4652C170.925 23.4652 172.65 24.4102 172.65 26.0002C172.65 27.6052 170.925 28.5202 168.135 28.5202C165.33 28.5202 163.605 27.6052 163.605 26.0002C163.605 24.4102 165.33 23.4652 168.135 23.4652ZM168.135 24.4402C166.095 24.4402 164.85 25.0102 164.85 26.0002C164.85 26.9752 166.095 27.5452 168.135 27.5452C170.175 27.5452 171.42 26.9752 171.42 26.0002C171.42 25.0102 170.175 24.4402 168.135 24.4402ZM164.895 16.3402H165.915V17.4352C165.915 19.9402 164.385 22.0852 162.135 22.9252L161.49 21.9352C163.5 21.2002 164.895 19.3852 164.895 17.4352V16.3402ZM165.135 16.3402H166.14V17.4352C166.14 19.1902 167.46 20.8702 169.425 21.5602L168.795 22.5502C166.59 21.7552 165.135 19.7152 165.135 17.4352V16.3402ZM161.865 15.9652H169.11V16.9852H161.865V15.9652ZM181.364 15.8302C184.184 15.8302 186.284 17.3302 186.284 19.5802C186.284 21.8452 184.184 23.3302 181.364 23.3302C178.544 23.3302 176.429 21.8452 176.429 19.5802C176.429 17.3302 178.544 15.8302 181.364 15.8302ZM181.364 16.8502C179.219 16.8502 177.629 17.9452 177.629 19.5802C177.629 21.2002 179.219 22.3102 181.364 22.3102C183.509 22.3102 185.099 21.2002 185.099 19.5802C185.099 17.9452 183.509 16.8502 181.364 16.8502ZM175.244 25.7002H187.529V26.7502H175.244V25.7002ZM189.043 25.8352H201.328V26.8702H189.043V25.8352ZM194.533 22.9252H195.778V26.2702H194.533V22.9252ZM190.528 15.9802H199.813V20.0902H191.803V22.8052H190.573V19.0852H198.583V16.9852H190.528V15.9802ZM190.573 22.2802H200.128V23.3002H190.573V22.2802ZM207.339 25.8352H219.624V26.8702H207.339V25.8352ZM212.829 22.9252H214.074V26.2702H212.829V22.9252ZM208.824 15.9802H218.109V20.0902H210.099V22.8052H208.869V19.0852H216.879V16.9852H208.824V15.9802ZM208.869 22.2802H218.424V23.3002H208.869V22.2802ZM222.458 16.4152H231.188V17.4202H222.458V16.4152ZM221.138 25.5202H233.393V26.5552H221.138V25.5202ZM230.528 16.4152H231.743V17.7652C231.743 19.5052 231.743 21.4402 231.233 24.3652L229.988 24.2452C230.528 21.4702 230.528 19.4452 230.528 17.7652V16.4152ZM244.792 14.9902H246.052V24.8902H244.792V14.9902ZM237.337 27.2152H246.457V28.2352H237.337V27.2152ZM237.337 23.8702H238.567V27.5602H237.337V23.8702ZM238.777 15.9202C240.802 15.9202 242.302 17.3002 242.302 19.2652C242.302 21.2152 240.802 22.6102 238.777 22.6102C236.752 22.6102 235.237 21.2152 235.237 19.2652C235.237 17.3002 236.752 15.9202 238.777 15.9202ZM238.777 17.0002C237.457 17.0002 236.452 17.9302 236.452 19.2652C236.452 20.5852 237.457 21.5152 238.777 21.5152C240.097 21.5152 241.102 20.5852 241.102 19.2652C241.102 17.9302 240.097 17.0002 238.777 17.0002Z" fill="black" fill-opacity="0.66"/>
</g>
<defs>
<clipPath id="clip0_635_2926">
<rect width="328" height="43.73" rx="6" fill="white"/>
</clipPath>
<clipPath id="clip1_635_2926">
<rect width="17.9999" height="18" fill="white" transform="translate(79.5 12.8652)"/>
</clipPath>
</defs>
</svg>
