<svg width="127" height="36" viewBox="0 0 127 36" fill="none" xmlns="http://www.w3.org/2000/svg">
<rect x="0.75" y="0.75" width="125.5" height="34.5" rx="17.25" fill="#E6DFDF"/>
<rect x="0.75" y="0.75" width="125.5" height="34.5" rx="17.25" stroke="#866D37" stroke-width="1.5"/>
<path d="M30 8C24.48 8 20 12.48 20 18C20 23.52 24.48 28 30 28C35.52 28 40 23.52 40 18C40 12.48 35.52 8 30 8ZM30 11C31.66 11 33 12.34 33 14C33 15.66 31.66 17 30 17C28.34 17 27 15.66 27 14C27 12.34 28.34 11 30 11ZM30 25.2C27.5 25.2 25.29 23.92 24 21.98C24.03 19.99 28 18.9 30 18.9C31.99 18.9 35.97 19.99 36 21.98C34.71 23.92 32.5 25.2 30 25.2Z" fill="black"/>
<path d="M52.82 22.58H69.58V24.74H52.82V22.58ZM59.84 19.08H62.5V23.46H59.84V19.08ZM54.7 9.46H67.7V15.62H57.38V18.74H54.74V13.54H65.06V11.56H54.7V9.46ZM54.74 17.68H68.12V19.82H54.74V17.68ZM72.4784 9.96H84.2184V12.06H72.4784V9.96ZM70.7784 22.2H87.5184V24.36H70.7784V22.2ZM82.8184 9.96H85.4584V12.16C85.4584 14.76 85.4584 17.28 84.7984 21.08L82.1384 20.86C82.8184 17.3 82.8184 14.66 82.8184 12.16V9.96ZM101.437 8.28H104.117V21.58H101.437V8.28ZM91.7769 24.34H104.577V26.46H91.7769V24.34ZM91.7769 20.24H94.4369V25.2H91.7769V20.24ZM94.0369 9.44C96.8769 9.44 99.0569 11.4 99.0569 14.14C99.0569 16.86 96.8769 18.84 94.0369 18.84C91.1969 18.84 88.9969 16.86 88.9969 14.14C88.9969 11.4 91.1969 9.44 94.0369 9.44ZM94.0369 11.74C92.6569 11.74 91.5969 12.62 91.5969 14.14C91.5969 15.64 92.6569 16.52 94.0369 16.52C95.3969 16.52 96.4569 15.64 96.4569 14.14C96.4569 12.62 95.3969 11.74 94.0369 11.74Z" fill="black"/>
</svg>
