<svg width="328" height="45" viewBox="0 0 328 45" fill="none" xmlns="http://www.w3.org/2000/svg">
<rect width="328" height="45" rx="8" fill="black"/>
<path d="M142.722 26.868H155.826V27.972H142.722V26.868ZM148.578 23.764H149.906V27.332H148.578V23.764ZM144.306 16.356H154.21V20.74H145.666V23.636H144.354V19.668H152.898V17.428H144.306V16.356ZM144.354 23.076H154.546V24.164H144.354V23.076ZM158.849 16.82H168.161V17.892H158.849V16.82ZM157.441 26.532H170.513V27.636H157.441V26.532ZM167.457 16.82H168.753V18.26C168.753 20.116 168.753 22.18 168.209 25.3L166.881 25.172C167.457 22.212 167.457 20.052 167.457 18.26V16.82ZM182.671 15.3H184.015V25.86H182.671V15.3ZM174.719 28.34H184.447V29.428H174.719V28.34ZM174.719 24.772H176.031V28.708H174.719V24.772ZM176.255 16.292C178.415 16.292 180.015 17.764 180.015 19.86C180.015 21.94 178.415 23.428 176.255 23.428C174.095 23.428 172.479 21.94 172.479 19.86C172.479 17.764 174.095 16.292 176.255 16.292ZM176.255 17.444C174.847 17.444 173.775 18.436 173.775 19.86C173.775 21.268 174.847 22.26 176.255 22.26C177.663 22.26 178.735 21.268 178.735 19.86C178.735 18.436 177.663 17.444 176.255 17.444Z" fill="white"/>
</svg>
