<svg width="112" height="43" viewBox="0 0 112 43" fill="none" xmlns="http://www.w3.org/2000/svg">
<rect width="112" height="43" rx="5" fill="#FAFAFA"/>
<rect x="0.5" y="0.5" width="111" height="42" rx="4.5" stroke="black" stroke-opacity="0.44"/>
<path d="M39.105 14.61H40.365V21.885H39.105V14.61ZM31.62 22.56H32.85V24.21H39.135V22.56H40.365V27.99H31.62V22.56ZM32.85 25.2V26.985H39.135V25.2H32.85ZM33.09 15.255C35.145 15.255 36.615 16.53 36.615 18.375C36.615 20.235 35.145 21.51 33.09 21.51C31.035 21.51 29.55 20.235 29.55 18.375C29.55 16.53 31.035 15.255 33.09 15.255ZM33.09 16.29C31.74 16.29 30.765 17.145 30.765 18.375C30.765 19.605 31.74 20.46 33.09 20.46C34.44 20.46 35.415 19.605 35.415 18.375C35.415 17.145 34.44 16.29 33.09 16.29ZM43.2738 21.33H44.2488C46.9188 21.33 48.2388 21.285 49.8588 21L49.9938 22.005C48.3138 22.305 46.9638 22.35 44.2488 22.35H43.2738V21.33ZM43.2438 15.42H49.0938V19.275H44.5038V21.945H43.2738V18.3H47.8638V16.44H43.2438V15.42ZM52.6188 14.625H53.8638V22.95H52.6188V14.625ZM49.9938 16.62H52.9038V17.64H49.9938V16.62ZM49.9938 19.425H52.9038V20.445H49.9938V19.425ZM44.7888 23.685H53.8638V28.2H52.6188V24.705H44.7888V23.685ZM59.6827 20.235H60.9277V22.29H59.6827V20.235ZM60.2677 15.225C62.2327 15.225 63.6127 16.305 63.6127 17.91C63.6127 19.515 62.2327 20.58 60.2677 20.58C58.3177 20.58 56.9377 19.515 56.9377 17.91C56.9377 16.305 58.3177 15.225 60.2677 15.225ZM60.2677 16.185C58.9927 16.185 58.1077 16.89 58.1077 17.91C58.1077 18.945 58.9927 19.635 60.2677 19.635C61.5577 19.635 62.4427 18.945 62.4427 17.91C62.4427 16.89 61.5577 16.185 60.2677 16.185ZM65.4427 14.625H66.6877V24.99H65.4427V14.625ZM66.1627 19.2H68.6677V20.235H66.1627V19.2ZM58.1077 26.835H67.1677V27.87H58.1077V26.835ZM58.1077 24.105H59.3527V27.285H58.1077V24.105ZM56.3227 22.98L56.1577 21.96C58.5427 21.96 61.8427 21.93 64.6027 21.51L64.6927 22.425C61.8577 22.95 58.6477 22.98 56.3227 22.98ZM73.0765 22.56H74.3065V25.89H73.0765V22.56ZM77.4115 22.53H78.6265V25.875H77.4115V22.53ZM69.6565 25.47H81.9415V26.505H69.6565V25.47ZM71.1415 15.615H80.4265V19.71H72.4165V22.44H71.1865V18.72H79.1965V16.62H71.1415V15.615ZM71.1865 21.885H80.7415V22.905H71.1865V21.885Z" fill="black"/>
</svg>
