<svg width="141" height="92" viewBox="0 0 141 92" fill="none" xmlns="http://www.w3.org/2000/svg">
<path d="M48.06 36.26H50.58V47.1H48.06V36.26ZM45.8 40.52H48.76V42.68H45.8V40.52ZM44.02 36.6H46.5V47.04H44.02V36.6ZM37.74 47.86H50.58V54.78H47.94V49.98H37.74V47.86ZM40.16 37.54H42.82C42.82 42.22 40.64 45.34 35.84 47.22L34.6 45.28C38.54 43.82 40.16 41.58 40.16 38.54V37.54ZM35.48 37.54H41.02V39.66H35.48V37.54ZM65.4784 36.26H68.1584V45.62H65.4784V36.26ZM55.7984 46.44H68.1584V51.46H58.4384V53.32H55.8384V49.54H65.5184V48.46H55.7984V46.44ZM55.8384 52.6H68.6184V54.66H55.8384V52.6ZM57.0984 36.68H59.2984V38.08C59.2984 41.5 57.5784 44.6 53.9584 45.7L52.6784 43.6C55.7784 42.66 57.0984 40.34 57.0984 38.08V36.68ZM57.6384 36.68H59.8184V38.08C59.8184 40.28 61.1184 42.44 64.1384 43.3L62.8584 45.36C59.2984 44.32 57.6384 41.42 57.6384 38.08V36.68ZM78.0769 40.34H81.1569V42.48H78.0769V40.34ZM78.0769 46.06H81.1569V48.22H78.0769V46.06ZM84.0969 36.26H86.6369V54.78H84.0969V36.26ZM80.3969 36.54H82.8769V53.94H80.3969V36.54ZM74.8769 37.56C77.3369 37.56 78.9169 40.1 78.9169 44.28C78.9169 48.48 77.3369 51.02 74.8769 51.02C72.4369 51.02 70.8769 48.48 70.8769 44.28C70.8769 40.1 72.4369 37.56 74.8769 37.56ZM74.8769 40.06C73.8569 40.06 73.2569 41.46 73.2569 44.28C73.2569 47.12 73.8569 48.5 74.8769 48.5C75.9169 48.5 76.5169 47.12 76.5169 44.28C76.5169 41.46 75.9169 40.06 74.8769 40.06ZM102.435 38.66H105.635V40.84H102.435V38.66ZM102.435 42.68H105.635V44.86H102.435V42.68ZM100.595 36.26H103.255V47.18H100.595V36.26ZM90.8953 47.94H103.255V54.78H100.595V50.06H90.8953V47.94ZM93.8353 37.26C96.6953 37.26 98.8753 39.16 98.8753 41.8C98.8753 44.44 96.6953 46.32 93.8353 46.32C90.9753 46.32 88.7953 44.44 88.7953 41.8C88.7953 39.16 90.9753 37.26 93.8353 37.26ZM93.8353 39.52C92.4353 39.52 91.3953 40.34 91.3953 41.8C91.3953 43.26 92.4353 44.1 93.8353 44.1C95.2353 44.1 96.2753 43.26 96.2753 41.8C96.2753 40.34 95.2353 39.52 93.8353 39.52Z" fill="black"/>
</svg>
