<svg width="220" height="92" viewBox="0 0 220 92" fill="none" xmlns="http://www.w3.org/2000/svg">
<path d="M34.8 46.92H51.58V49.02H34.8V46.92ZM41.8 47.98H44.44V54.78H41.8V47.98ZM36.72 36.96H39.36V39.06H46.96V36.96H49.6V45.16H36.72V36.96ZM39.36 41.14V43.04H46.96V41.14H39.36ZM66.1384 36.26H68.6584V54.78H66.1384V36.26ZM63.6584 43.38H66.7384V45.52H63.6584V43.38ZM61.9984 36.58H64.4584V53.9H61.9984V36.58ZM53.2784 48.42H54.5784C56.8584 48.42 58.7584 48.34 60.9584 47.94L61.1584 50.1C58.9184 50.54 56.9584 50.6 54.5784 50.6H53.2784V48.42ZM53.2784 38.4H60.1184V40.54H55.9184V49.46H53.2784V38.4ZM77.4595 37.7727L72.772 55.1875H70.1655L74.853 37.7727H77.4595ZM78.0698 45.4H94.8098V47.54H78.0698V45.4ZM85.0898 43.04H87.7498V45.86H85.0898V43.04ZM79.9298 48.8H92.7898V54.78H90.1298V50.9H79.9298V48.8ZM80.2098 36.72H82.8298V38.36H90.0498V36.72H92.6898V43.88H80.2098V36.72ZM82.8298 40.34V41.8H90.0498V40.34H82.8298ZM108.788 36.24H111.448V54.82H108.788V36.24ZM97.0283 48.34H98.6683C101.948 48.34 104.568 48.22 107.508 47.72L107.768 49.86C104.768 50.4 102.048 50.5 98.6683 50.5H97.0283V48.34ZM97.0083 37.82H105.748V44.98H99.7283V49.14H97.0283V42.88H103.028V39.94H97.0083V37.82ZM118.507 37.68H120.667V40.38C120.667 45.14 119.027 49.44 115.347 51.14L113.767 48.94C116.987 47.54 118.507 43.98 118.507 40.38V37.68ZM119.027 37.68H121.187V40.38C121.187 43.8 122.647 47.2 125.807 48.56L124.247 50.7C120.667 49.06 119.027 44.94 119.027 40.38V37.68ZM126.687 36.24H129.367V54.82H126.687V36.24ZM141.405 38.96H145.965V41.08H141.405V38.96ZM144.785 36.26H147.445V45.66H144.785V36.26ZM135.205 46.44H147.445V51.42H137.865V53.74H135.245V49.5H144.805V48.48H135.205V46.44ZM135.245 52.52H147.965V54.58H135.245V52.52ZM136.185 36.86H138.345V38.18C138.345 41.68 136.705 44.7 133.165 45.82L131.805 43.72C134.885 42.8 136.185 40.54 136.185 38.18V36.86ZM136.705 36.86H138.865V38.18C138.865 40.38 140.105 42.52 143.025 43.4L141.665 45.46C138.285 44.36 136.705 41.5 136.705 38.18V36.86ZM157.264 40.34H160.344V42.48H157.264V40.34ZM157.264 46.06H160.344V48.22H157.264V46.06ZM163.284 36.26H165.824V54.78H163.284V36.26ZM159.584 36.54H162.064V53.94H159.584V36.54ZM154.064 37.56C156.524 37.56 158.104 40.1 158.104 44.28C158.104 48.48 156.524 51.02 154.064 51.02C151.624 51.02 150.064 48.48 150.064 44.28C150.064 40.1 151.624 37.56 154.064 37.56ZM154.064 40.06C153.044 40.06 152.444 41.46 152.444 44.28C152.444 47.12 153.044 48.5 154.064 48.5C155.104 48.5 155.704 47.12 155.704 44.28C155.704 41.46 155.104 40.06 154.064 40.06ZM181.622 38.66H184.822V40.84H181.622V38.66ZM181.622 42.68H184.822V44.86H181.622V42.68ZM179.782 36.26H182.442V47.18H179.782V36.26ZM170.082 47.94H182.442V54.78H179.782V50.06H170.082V47.94ZM173.022 37.26C175.882 37.26 178.062 39.16 178.062 41.8C178.062 44.44 175.882 46.32 173.022 46.32C170.162 46.32 167.982 44.44 167.982 41.8C167.982 39.16 170.162 37.26 173.022 37.26ZM173.022 39.52C171.622 39.52 170.582 40.34 170.582 41.8C170.582 43.26 171.622 44.1 173.022 44.1C174.422 44.1 175.462 43.26 175.462 41.8C175.462 40.34 174.422 39.52 173.022 39.52Z" fill="black"/>
</svg>
