<svg width="326" height="50" viewBox="0 0 326 50" fill="none" xmlns="http://www.w3.org/2000/svg">
<g clip-path="url(#clip0_627_2713)">
<rect width="326" height="50" rx="10" fill="white"/>
<path d="M114.5 24.5L0 25.5005" stroke="black" stroke-opacity="0.44"/>
<path d="M151.66 24.064H157.185V25.22H151.66V24.064ZM144.35 29.198H158.273V30.371H144.35V29.198ZM150.572 25.968H151.966V29.759H150.572V25.968ZM151.66 18.386H157.032V19.542H153.071V24.676H151.66V18.386ZM145.54 18.403H150.742V19.559H146.951V24.608H145.54V18.403ZM145.54 24.03H146.39C147.886 24.03 149.28 23.979 150.878 23.605L151.014 24.795C149.348 25.152 147.937 25.22 146.39 25.22H145.54V24.03ZM161.485 21.565H171.923V22.721H161.485V21.565ZM159.598 24.778H173.538V25.934H159.598V24.778ZM161.485 17.519H162.879V22.143H161.485V17.519ZM161.383 30.796H172.008V31.952H161.383V30.796ZM161.383 27.464H162.777V31.102H161.383V27.464Z" fill="black" fill-opacity="0.44"/>
<line x1="203.5" y1="24.5" x2="353.5" y2="24.5" stroke="black" stroke-opacity="0.44"/>
</g>
<defs>
<clipPath id="clip0_627_2713">
<rect width="326" height="50" rx="10" fill="white"/>
</clipPath>
</defs>
</svg>
